<mxfile host="Electron" modified="2023-06-04T10:04:20.306Z" agent="Mozilla/5.0 (Windows NT 10.0; Win64; x64) AppleWebKit/537.36 (KHTML, like Gecko) draw.io/21.2.8 Chrome/112.0.5615.165 Electron/24.2.0 Safari/537.36" etag="JIoIZLWdRcEzASpFhxDz" version="21.2.8" type="device">
  <diagram name="Page-1" id="5d7acffa-a066-3a61-03fe-96351882024d">
    <mxGraphModel dx="1036" dy="614" grid="1" gridSize="10" guides="1" tooltips="1" connect="1" arrows="1" fold="1" page="1" pageScale="1" pageWidth="1100" pageHeight="850" background="#ffffff" math="0" shadow="0">
      <root>
        <mxCell id="0" />
        <mxCell id="1" parent="0" />
        <mxCell id="QZWRVkWgOH4tQiXEA4vU-67" value="&lt;font style=&quot;font-size: 16px;&quot;&gt;报名记录&lt;/font&gt;" style="html=1;rounded=0;shadow=0;comic=0;labelBackgroundColor=none;strokeWidth=2;fontFamily=Verdana;fontSize=12;align=center;shape=mxgraph.ios7ui.horLines;" vertex="1" parent="1">
          <mxGeometry x="435" y="300" width="135" height="50" as="geometry" />
        </mxCell>
        <mxCell id="QZWRVkWgOH4tQiXEA4vU-68" value="&lt;font style=&quot;font-size: 16px;&quot;&gt;成绩记录&lt;/font&gt;" style="html=1;rounded=0;shadow=0;comic=0;labelBackgroundColor=none;strokeWidth=2;fontFamily=Verdana;fontSize=12;align=center;shape=mxgraph.ios7ui.horLines;" vertex="1" parent="1">
          <mxGeometry x="670" y="440" width="135" height="50" as="geometry" />
        </mxCell>
        <mxCell id="QZWRVkWgOH4tQiXEA4vU-69" value="" style="endArrow=classic;html=1;rounded=0;exitX=0.02;exitY=0.722;exitDx=0;exitDy=0;exitPerimeter=0;" edge="1" parent="1">
          <mxGeometry width="50" height="50" relative="1" as="geometry">
            <mxPoint x="480.0000000000001" y="568.88" as="sourcePoint" />
            <mxPoint x="257.6" y="571.12" as="targetPoint" />
          </mxGeometry>
        </mxCell>
        <mxCell id="QZWRVkWgOH4tQiXEA4vU-70" value="考生成绩" style="edgeLabel;html=1;align=center;verticalAlign=middle;resizable=0;points=[];fontSize=16;" vertex="1" connectable="0" parent="QZWRVkWgOH4tQiXEA4vU-69">
          <mxGeometry x="-0.3212" y="-4" relative="1" as="geometry">
            <mxPoint x="-16" y="4" as="offset" />
          </mxGeometry>
        </mxCell>
        <mxCell id="QZWRVkWgOH4tQiXEA4vU-71" value="检查是否&lt;br&gt;参加考试&lt;br style=&quot;font-size: 16px;&quot;&gt;4.1" style="ellipse;whiteSpace=wrap;html=1;fontSize=16;" vertex="1" parent="1">
          <mxGeometry x="370" y="410" width="120" height="80" as="geometry" />
        </mxCell>
        <mxCell id="QZWRVkWgOH4tQiXEA4vU-72" value="" style="endArrow=classic;html=1;rounded=0;exitX=0.523;exitY=1.036;exitDx=0;exitDy=0;exitPerimeter=0;entryX=0.577;entryY=-0.027;entryDx=0;entryDy=0;entryPerimeter=0;" edge="1" parent="1" source="QZWRVkWgOH4tQiXEA4vU-67" target="QZWRVkWgOH4tQiXEA4vU-71">
          <mxGeometry width="50" height="50" relative="1" as="geometry">
            <mxPoint x="610" y="430" as="sourcePoint" />
            <mxPoint x="660" y="380" as="targetPoint" />
          </mxGeometry>
        </mxCell>
        <mxCell id="QZWRVkWgOH4tQiXEA4vU-73" value="得分汇总&lt;br style=&quot;font-size: 16px;&quot;&gt;4.2" style="ellipse;whiteSpace=wrap;html=1;fontSize=16;" vertex="1" parent="1">
          <mxGeometry x="480" y="530" width="120" height="80" as="geometry" />
        </mxCell>
        <mxCell id="QZWRVkWgOH4tQiXEA4vU-74" value="" style="endArrow=classic;html=1;rounded=0;exitX=0.216;exitY=1.036;exitDx=0;exitDy=0;exitPerimeter=0;entryX=1;entryY=0.5;entryDx=0;entryDy=0;fontSize=16;" edge="1" parent="1" source="QZWRVkWgOH4tQiXEA4vU-68" target="QZWRVkWgOH4tQiXEA4vU-73">
          <mxGeometry width="50" height="50" relative="1" as="geometry">
            <mxPoint x="810" y="610" as="sourcePoint" />
            <mxPoint x="860" y="560" as="targetPoint" />
            <Array as="points">
              <mxPoint x="700" y="570" />
            </Array>
          </mxGeometry>
        </mxCell>
        <mxCell id="QZWRVkWgOH4tQiXEA4vU-75" value="选择题得分" style="edgeLabel;html=1;align=center;verticalAlign=middle;resizable=0;points=[];fontSize=16;" vertex="1" connectable="0" parent="QZWRVkWgOH4tQiXEA4vU-74">
          <mxGeometry x="-0.3797" y="-1" relative="1" as="geometry">
            <mxPoint y="-27" as="offset" />
          </mxGeometry>
        </mxCell>
        <mxCell id="QZWRVkWgOH4tQiXEA4vU-76" value="" style="endArrow=classic;html=1;rounded=0;exitX=0.696;exitY=1.02;exitDx=0;exitDy=0;exitPerimeter=0;entryX=1;entryY=0.5;entryDx=0;entryDy=0;fontSize=16;" edge="1" parent="1" source="QZWRVkWgOH4tQiXEA4vU-68" target="QZWRVkWgOH4tQiXEA4vU-73">
          <mxGeometry width="50" height="50" relative="1" as="geometry">
            <mxPoint x="732" y="503" as="sourcePoint" />
            <mxPoint x="610" y="580" as="targetPoint" />
            <Array as="points">
              <mxPoint x="764" y="570" />
            </Array>
          </mxGeometry>
        </mxCell>
        <mxCell id="QZWRVkWgOH4tQiXEA4vU-77" value="作文得分" style="edgeLabel;html=1;align=center;verticalAlign=middle;resizable=0;points=[];fontSize=16;" vertex="1" connectable="0" parent="QZWRVkWgOH4tQiXEA4vU-76">
          <mxGeometry x="-0.3797" y="-1" relative="1" as="geometry">
            <mxPoint y="-25" as="offset" />
          </mxGeometry>
        </mxCell>
        <mxCell id="QZWRVkWgOH4tQiXEA4vU-78" value="" style="endArrow=classic;html=1;rounded=0;exitX=0.597;exitY=1.033;exitDx=0;exitDy=0;exitPerimeter=0;entryX=0.253;entryY=0.023;entryDx=0;entryDy=0;entryPerimeter=0;" edge="1" parent="1" source="QZWRVkWgOH4tQiXEA4vU-71" target="QZWRVkWgOH4tQiXEA4vU-73">
          <mxGeometry width="50" height="50" relative="1" as="geometry">
            <mxPoint x="540" y="510" as="sourcePoint" />
            <mxPoint x="590" y="460" as="targetPoint" />
          </mxGeometry>
        </mxCell>
        <mxCell id="QZWRVkWgOH4tQiXEA4vU-79" value="是否统计得分" style="edgeLabel;html=1;align=center;verticalAlign=middle;resizable=0;points=[];fontSize=16;" vertex="1" connectable="0" parent="QZWRVkWgOH4tQiXEA4vU-78">
          <mxGeometry x="0.313" y="-1" relative="1" as="geometry">
            <mxPoint x="-6" y="-9" as="offset" />
          </mxGeometry>
        </mxCell>
      </root>
    </mxGraphModel>
  </diagram>
</mxfile>
